{
  "source": "C:\\Users\\Peter\\Desktop\\stuff\\MIUN\\quantitative_research\\video_compression\\videos\\BVI-HD\\BVI-HD_CDVL_videos\\ORIG\\BridgeRiver_1920x1080_30fps.mp4",
  "output": "C:\\Users\\Peter\\Desktop\\stuff\\MIUN\\quantitative_research\\video_compression\\compressed_videos\\BVI-HD\\av1\\1\\BridgeRiver_1920x1080_30fps_av1.mkv",
  "codec": "av1",
  "ok": "Input #0, mov,mp4,m4a,3gp,3g2,mj2, from 'C:\\Users\\Peter\\Desktop\\stuff\\MIUN\\quantitative_research\\video_compression\\videos\\BVI-HD\\BVI-HD_CDVL_videos\\ORIG\\BridgeRiver_1920x1080_30fps.mp4':\n  Metadata:\n    major_brand     : isom\n    minor_version   : 512\n    compatible_brands: isomiso2avc1mp41\n    encoder         : Lavf54.28.101\n  Duration: 00:00:05.00, start: 0.000000, bitrate: 274913 kb/s\n  Stream #0:0[0x1](und): Video: h264 (High 4:4:4 Predictive) (avc1 / 0x31637661), yuv420p(progressive), 1920x1080, 274910 kb/s, 30 fps, 30 tbr, 30 tbn (default)\n    Metadata:\n      handler_name    : VideoHandler\n      vendor_id       : [0][0][0][0]\n[out#0/matroska @ 00000204f43d8fc0] Codec AVOption b:a (set bitrate (in bits/s)) has not been used for any stream. The most likely reason is either wrong type (e.g. a video option with no video streams) or that it is a private option of some decoder which was not actually used for any stream.\nStream mapping:\n  Stream #0:0 -> #0:0 (h264 (native) -> av1 (libsvtav1))\nPress [q] to stop, [?] for help\nSvt[info]: -------------------------------------------\nSvt[info]: SVT [version]:\tSVT-AV1 Encoder Lib v3.1.0-19-g6ecfe8ec\nSvt[info]: SVT [build]  :\tGCC 15.2.0\t 64 bit\nSvt[info]: LIB Build date: Aug 17 2025 11:37:13\nSvt[info]: -------------------------------------------\nSvt[info]: Level of Parallelism: 5\nSvt[info]: Number of PPCS 93\nSvt[info]: [asm level on system : up to avx2]\nSvt[info]: [asm level selected : up to avx2]\nSvt[info]: -------------------------------------------\nSvt[info]: SVT [config]: main profile\ttier (auto)\tlevel (auto)\nSvt[info]: SVT [config]: width / height / fps numerator / fps denominator \t\t: 1920 / 1080 / 30 / 1\nSvt[info]: SVT [config]: bit-depth / color format \t\t\t\t\t: 8 / YUV420\nSvt[info]: SVT [config]: preset / tune / pred struct \t\t\t\t\t: 4 / PSNR / random access\nSvt[info]: SVT [config]: gop size / mini-gop size / key-frame type \t\t\t: 161 / 16 / key frame\nSvt[info]: SVT [config]: BRC mode / target bitrate (kbps)\t\t\t\t: VBR / 1000 \nSvt[info]: SVT [config]: AQ mode / Variance Boost \t\t\t\t\t: 2 / 0\nSvt[info]: SVT [config]: sharpness / luminance-based QP bias \t\t\t\t: 0 / 0\nSvt[info]: SVT [config]: QP scale compress strength \t\t\t\t\t: 0\nSvt[info]: -------------------------------------------\nOutput #0, matroska, to 'C:\\Users\\Peter\\Desktop\\stuff\\MIUN\\quantitative_research\\video_compression\\compressed_videos\\BVI-HD\\av1\\1\\BridgeRiver_1920x1080_30fps_av1.mkv':\n  Metadata:\n    major_brand     : isom\n    minor_version   : 512\n    compatible_brands: isomiso2avc1mp41\n    encoder         : Lavf62.3.100\n  Stream #0:0(und): Video: av1 (AV01 / 0x31305641), yuv420p(tv, progressive), 1920x1080, q=2-31, 1000 kb/s, 30 fps, 1k tbn (default)\n    Metadata:\n      encoder         : Lavc62.11.100 libsvtav1\n      handler_name    : VideoHandler\n      vendor_id       : [0][0][0][0]\n    Side data:\n      cpb: bitrate max/min/avg: 0/0/1000000 buffer size: 1000000 vbv_delay: N/A\nframe=    0 fps=0.0 q=0.0 size=       0KiB time=N/A bitrate=N/A speed=N/A elapsed=0:00:01.07    \nframe=    0 fps=0.0 q=0.0 size=       0KiB time=N/A bitrate=N/A speed=N/A elapsed=0:00:01.62    \nframe=    0 fps=0.0 q=0.0 size=       0KiB time=N/A bitrate=N/A speed=N/A elapsed=0:00:02.27    \nframe=    0 fps=0.0 q=0.0 size=       0KiB time=N/A bitrate=N/A speed=N/A elapsed=0:00:02.83    \nframe=    0 fps=0.0 q=0.0 size=       0KiB time=N/A bitrate=N/A speed=N/A elapsed=0:00:03.44    \nframe=    0 fps=0.0 q=0.0 size=       0KiB time=N/A bitrate=N/A speed=N/A elapsed=0:00:04.03    \nframe=    0 fps=0.0 q=0.0 size=       0KiB time=N/A bitrate=N/A speed=N/A elapsed=0:00:04.55    \nframe=    0 fps=0.0 q=0.0 size=       0KiB time=N/A bitrate=N/A speed=N/A elapsed=0:00:05.07    \nframe=    0 fps=0.0 q=0.0 size=       0KiB time=N/A bitrate=N/A speed=N/A elapsed=0:00:05.61    \nframe=    1 fps=0.2 q=42.0 size=       1KiB time=00:00:00.00 bitrate=N/A speed=   0x elapsed=0:00:06.14    \nframe=    1 fps=0.1 q=42.0 size=       1KiB time=00:00:00.00 bitrate=N/A speed=   0x elapsed=0:00:06.68    \nframe=    7 fps=1.0 q=62.0 size=       1KiB time=00:00:00.20 bitrate=  28.5kbits/s speed=0.0277x elapsed=0:00:07.22    \nframe=   10 fps=1.3 q=61.0 size=       1KiB time=00:00:00.26 bitrate=  21.4kbits/s speed=0.0343x elapsed=0:00:07.78    \nframe=   15 fps=1.8 q=61.0 size=       1KiB time=00:00:00.46 bitrate=  12.2kbits/s speed=0.056x elapsed=0:00:08.33    \nframe=   18 fps=2.0 q=58.0 size=       1KiB time=00:00:00.56 bitrate=  10.1kbits/s speed=0.0639x elapsed=0:00:08.86    \nframe=   21 fps=2.2 q=59.0 size=       1KiB time=00:00:00.66 bitrate=   8.6kbits/s speed=0.071x elapsed=0:00:09.38    \nframe=   23 fps=2.3 q=60.0 size=       1KiB time=00:00:00.73 bitrate=   7.8kbits/s speed=0.074x elapsed=0:00:09.90    \nframe=   27 fps=2.6 q=60.0 size=       1KiB time=00:00:00.86 bitrate=   6.6kbits/s speed=0.0826x elapsed=0:00:10.48    \nframe=   32 fps=2.9 q=59.0 size=       1KiB time=00:00:01.03 bitrate=   5.5kbits/s speed=0.0936x elapsed=0:00:11.04    \nframe=   36 fps=3.1 q=59.0 size=       1KiB time=00:00:01.16 bitrate=   4.9kbits/s speed=0.101x elapsed=0:00:11.55    \nframe=   38 fps=3.1 q=60.0 size=       1KiB time=00:00:01.23 bitrate=   4.6kbits/s speed=0.102x elapsed=0:00:12.08    \nframe=   41 fps=3.3 q=58.0 size=       1KiB time=00:00:01.33 bitrate=   4.3kbits/s speed=0.106x elapsed=0:00:12.60    \nframe=   45 fps=3.4 q=58.0 size=       1KiB time=00:00:01.43 bitrate=   4.0kbits/s speed=0.109x elapsed=0:00:13.14    \nframe=   50 fps=3.7 q=61.0 size=       1KiB time=00:00:01.63 bitrate=   3.5kbits/s speed=0.119x elapsed=0:00:13.69    \nframe=   55 fps=3.9 q=60.0 size=       1KiB time=00:00:01.80 bitrate=   3.2kbits/s speed=0.127x elapsed=0:00:14.20    \nframe=   57 fps=3.9 q=57.0 size=       1KiB time=00:00:01.86 bitrate=   3.1kbits/s speed=0.126x elapsed=0:00:14.76    \nframe=   61 fps=4.0 q=58.0 size=       1KiB time=00:00:02.00 bitrate=   2.9kbits/s speed=0.13x elapsed=0:00:15.33    \nframe=   65 fps=4.1 q=53.0 size=       1KiB time=00:00:02.13 bitrate=   2.7kbits/s speed=0.134x elapsed=0:00:15.92    \nframe=   69 fps=4.2 q=59.0 size=       1KiB time=00:00:02.26 bitrate=   2.5kbits/s speed=0.137x elapsed=0:00:16.51    \nframe=   73 fps=4.3 q=57.0 size=       1KiB time=00:00:02.40 bitrate=   2.4kbits/s speed=0.14x elapsed=0:00:17.09    \nframe=   77 fps=4.4 q=59.0 size=       1KiB time=00:00:02.46 bitrate=   2.3kbits/s speed=0.14x elapsed=0:00:17.66    \nframe=   81 fps=4.4 q=53.0 size=       1KiB time=00:00:02.66 bitrate=   2.1kbits/s speed=0.146x elapsed=0:00:18.22    \nframe=   87 fps=4.6 q=62.0 size=       1KiB time=00:00:02.86 bitrate=   2.0kbits/s speed=0.153x elapsed=0:00:18.79    \nframe=   93 fps=4.8 q=60.0 size=       1KiB time=00:00:03.06 bitrate=   1.9kbits/s speed=0.159x elapsed=0:00:19.32    \nframe=  101 fps=5.1 q=62.0 size=       1KiB time=00:00:03.33 bitrate=   1.7kbits/s speed=0.168x elapsed=0:00:19.88    \nframe=  105 fps=5.1 q=60.0 size=       1KiB time=00:00:03.46 bitrate=   1.6kbits/s speed=0.17x elapsed=0:00:20.39    \nframe=  113 fps=5.4 q=58.0 size=       1KiB time=00:00:03.73 bitrate=   1.5kbits/s speed=0.178x elapsed=0:00:20.91    \nframe=  121 fps=5.6 q=60.0 size=       1KiB time=00:00:04.00 bitrate=   1.4kbits/s speed=0.186x elapsed=0:00:21.45    \nframe=  133 fps=6.0 q=63.0 size=       1KiB time=00:00:04.40 bitrate=   1.3kbits/s speed= 0.2x elapsed=0:00:21.99    \n[out#0/matroska @ 00000204f43d8fc0] video:483KiB audio:0KiB subtitle:0KiB other streams:0KiB global headers:0KiB muxing overhead: 0.291049%\nframe=  150 fps=6.7 q=63.0 Lsize=     484KiB time=00:00:04.96 bitrate= 798.7kbits/s speed=0.221x elapsed=0:00:22.51    \n",
  "seconds": 23.064646005630493,
  "probe_out": {}
}